<svg xmlns="http://www.w3.org/2000/svg" version="1.1" xmlns:xlink="http://www.w3.org/1999/xlink" xmlns:svgjs="http://svgjs.com/svgjs" width="512" height="512" x="0" y="0" viewBox="0 0 512 512" style="enable-background:new 0 0 512 512" xml:space="preserve" class=""><g><g fill-rule="evenodd" clip-rule="evenodd"><path fill="#e4e8eb" d="M20.445 18.42h460c5.508 0 10 4.492 10 10v460c0 5.508-4.492 10-10 10h-460c-5.508 0-10-4.492-10-10v-460c0-5.508 4.492-10 10-10z" data-original="#e4e8eb" class=""></path><path fill="#fdcd56" d="M320.445 18.42v76.133h170V28.42c0-5.508-4.492-10-10-10z" data-original="#fdcd56" class=""></path><path fill="#a9b0bb" d="M170.444 94.554V498.42h160.001v-480H170.444z" data-original="#a9b0bb" class=""></path><path fill="#66d4f1" d="M160.444 18.42h170.002v76.133H160.444z" data-original="#66d4f1"></path><path fill="#f76c82" d="M10.445 94.554h159.999V18.42H20.445c-5.508 0-10 4.492-10 10z" data-original="#f76c82" class=""></path><path fill="#fdcd56" d="M47.257 134.501H100.7l37.932 37.932v79.107c0 2.754-2.246 5-5 5H47.257a5.01 5.01 0 0 1-5-5V139.5a5.01 5.01 0 0 1 5-4.999z" data-original="#fdcd56" class=""></path><path fill="#f5b945" d="M138.632 172.433 100.7 134.501v32.932c0 2.754 2.246 5 5 5z" data-original="#f5b945"></path><path fill="#fdcd56" d="M367.257 336.434H420.7l37.932 37.932v79.107c0 2.754-2.246 5-5 5h-86.376a5.01 5.01 0 0 1-5-5v-112.04a5.01 5.01 0 0 1 5.001-4.999z" data-original="#fdcd56" class=""></path><path fill="#f5b945" d="M458.632 374.366 420.7 336.434v32.932c0 2.754 2.246 5 5 5z" data-original="#f5b945"></path><path fill="#fdcd56" d="M47.257 336.434H100.7l37.932 37.932v79.107c0 2.754-2.246 5-5 5H47.257a5.01 5.01 0 0 1-5-5v-112.04a5.01 5.01 0 0 1 5-4.999z" data-original="#fdcd56" class=""></path><path fill="#f5b945" d="M138.632 374.366 100.7 336.434v32.932c0 2.754 2.246 5 5 5z" data-original="#f5b945"></path><path fill="#fdcd56" d="M207.257 134.501H260.7l37.932 37.932v79.107c0 2.754-2.246 5-5 5h-86.376a5.01 5.01 0 0 1-5-5V139.5a5.01 5.01 0 0 1 5.001-4.999z" data-original="#fdcd56" class=""></path><path fill="#f5b945" d="M298.632 172.433 260.7 134.501v32.932c0 2.754 2.246 5 5 5z" data-original="#f5b945"></path><path d="M218.283 161.286c0-3.859 3.153-6.997 7.011-6.997h15.905c3.859 0 7.011 3.138 7.011 6.997 0 3.873-3.153 7.002-7.011 7.002h-15.905c-3.859 0-7.011-3.129-7.011-7.002zm64.324 33.212c0 3.868-3.153 7.002-7.011 7.002h-50.302c-3.859 0-7.011-3.134-7.011-7.002 0-3.859 3.153-6.997 7.011-6.997h50.302c3.858 0 7.011 3.138 7.011 6.997zm0 33.212c0 3.868-3.153 6.997-7.011 6.997h-50.302c-3.859 0-7.011-3.129-7.011-6.997 0-3.858 3.153-7.002 7.011-7.002h50.302c3.858 0 7.011 3.143 7.011 7.002zm-73.359-86.21v108.039h82.393V179.44h-30.915a6.987 6.987 0 0 1-7.011-7.001V141.5zm58.443 9.9 14.07 14.037h-14.07zm-65.407 112.138h96.369c3.858 0 7.011-3.129 7.011-6.997v-84.102a6.993 6.993 0 0 0-2.07-4.951l-37.926-37.941a7.048 7.048 0 0 0-4.941-2.051h-58.443a6.99 6.99 0 0 0-7.011 7.002V256.54a6.98 6.98 0 0 0 7.011 6.998zm-79.665-69.04c0 3.868-3.153 7.002-7.011 7.002H65.306c-3.858 0-7.011-3.134-7.011-7.002 0-3.859 3.153-6.997 7.011-6.997h50.302c3.859 0 7.011 3.138 7.011 6.997zm-64.324-33.212c0-3.859 3.153-6.997 7.011-6.997h15.905c3.858 0 7.011 3.138 7.011 6.997 0 3.873-3.153 7.002-7.011 7.002H65.306c-3.858 0-7.011-3.129-7.011-7.002zm64.324 66.424c0 3.868-3.153 6.997-7.011 6.997H65.306c-3.858 0-7.011-3.129-7.011-6.997 0-3.858 3.153-7.002 7.011-7.002h50.302c3.859 0 7.011 3.143 7.011 7.002zm-73.358 21.829h82.393V179.44h-30.962c-3.859 0-6.964-3.139-6.964-7.001V141.5H49.261zm58.442-98.139 14.022 14.037h-14.022zm35.903 16.088-37.926-37.941a7.075 7.075 0 0 0-4.988-2.051H42.249c-3.859 0-7.011 3.143-7.011 7.002V256.54c0 3.868 3.153 6.997 7.011 6.997h96.369a6.98 6.98 0 0 0 7.011-6.997v-84.102a7.145 7.145 0 0 0-2.023-4.95zM122.619 396.44c0 3.859-3.153 6.997-7.011 6.997H65.306c-3.858 0-7.011-3.139-7.011-6.997 0-3.873 3.153-7.002 7.011-7.002h50.302c3.859 0 7.011 3.129 7.011 7.002zm-64.324-33.211c0-3.868 3.153-7.002 7.011-7.002h15.905c3.858 0 7.011 3.134 7.011 7.002 0 3.859-3.153 7.002-7.011 7.002H65.306c-3.858-.001-7.011-3.144-7.011-7.002zm64.324 66.409c0 3.873-3.153 7.002-7.011 7.002H65.306c-3.858 0-7.011-3.129-7.011-7.002 0-3.858 3.153-6.997 7.011-6.997h50.302c3.859 0 7.011 3.138 7.011 6.997zm-73.358 21.843h82.393v-70.112h-30.962c-3.859 0-6.964-3.139-6.964-6.997v-30.929H49.261zm58.442-98.143 14.022 14.032h-14.022zm-2.023-21.848a7.017 7.017 0 0 0-4.988-2.052H42.249c-3.859 0-7.011 3.129-7.011 7.002v122.038c0 3.859 3.153 7.002 7.011 7.002h96.369a6.99 6.99 0 0 0 7.011-7.002v-84.106a7.139 7.139 0 0 0-2.023-4.95zm196.267-275c0 3.868-3.153 6.997-7.011 6.997h-88.981c-3.859 0-7.011-3.129-7.011-6.997 0-3.873 3.153-7.002 7.011-7.002h88.981c3.858 0 7.011 3.129 7.011 7.002zm-262.992 0c0-3.873 3.153-7.002 7.011-7.002h88.981c3.859 0 7.011 3.129 7.011 7.002 0 3.868-3.153 6.997-7.011 6.997h-88.98c-3.859 0-7.012-3.129-7.012-6.997zm320.023 0c0-3.873 3.106-7.002 6.964-7.002h88.981a6.981 6.981 0 0 1 7.011 7.002 6.98 6.98 0 0 1-7.011 6.997h-88.981c-3.858 0-6.964-3.129-6.964-6.997zm19.34 306.739c0-3.868 3.106-7.002 6.964-7.002h15.905a6.984 6.984 0 0 1 7.011 7.002 6.99 6.99 0 0 1-7.011 7.002h-15.905c-3.859-.001-6.964-3.144-6.964-7.002zm64.277 33.211c0 3.859-3.106 6.997-6.964 6.997h-50.349c-3.858 0-6.964-3.139-6.964-6.997 0-3.873 3.106-7.002 6.964-7.002h50.349c3.858 0 6.964 3.129 6.964 7.002zm0 33.198c0 3.873-3.106 7.002-6.964 7.002h-50.349c-3.858 0-6.964-3.129-6.964-7.002 0-3.858 3.106-6.997 6.964-6.997h50.349c3.858 0 6.964 3.138 6.964 6.997zm-73.312 21.843h82.346v-70.112h-30.915c-3.858 0-7.011-3.139-7.011-6.997v-30.929h-44.42zm58.442-98.143 14.022 14.032h-14.022zm-2.07-21.848a6.99 6.99 0 0 0-4.941-2.052h-58.442c-3.859 0-7.011 3.129-7.011 7.002v122.038c0 3.859 3.153 7.002 7.011 7.002h96.369c3.858 0 7.011-3.143 7.011-7.002v-84.106a6.982 6.982 0 0 0-2.07-4.95zm54.819 159.931c1.647 0 2.965-1.341 2.965-3.002v-386.86H337.473v389.862zm-463.023-3.002c0 1.661 1.365 3.002 3.012 3.002h143.001V101.559H17.451zm3.012-463c-1.647 0-3.012 1.35-3.012 3.002V87.56h146.012V25.419zm302.988 76.14H177.439v389.862h146.012zM177.439 87.56h146.012V25.419H177.439zm306-59.138c0-1.652-1.318-3.002-2.965-3.002H337.473v62.14h145.965V28.422zm-2.965-17.002H20.463c-9.364 0-17.034 7.628-17.034 17.001v459.997c0 9.378 7.67 17.001 17.034 17.001h460.012c9.364 0 16.987-7.623 16.987-17.001V28.422c-.001-9.374-7.624-17.002-16.988-17.002z" fill="#000000" data-original="#000000" class=""></path></g></g></svg>