<svg xmlns="http://www.w3.org/2000/svg" version="1.1" xmlns:xlink="http://www.w3.org/1999/xlink" xmlns:svgjs="http://svgjs.com/svgjs" width="512" height="512" x="0" y="0" viewBox="0 0 32 32" style="enable-background:new 0 0 512 512" xml:space="preserve" class=""><g><linearGradient id="a" x1="6.53" x2="29.94" y1="25.79" y2="1.49" gradientUnits="userSpaceOnUse"><stop offset=".01" stop-color="#0056e0"></stop><stop offset="1" stop-color="#00e5b8"></stop></linearGradient><path fill="url(#a)" d="M24.68 7.75A.73.73 0 1 1 24 7a.7.7 0 0 1 .68.75zm5.72 1c-.27 3.37-.78 7.17-2.86 9.25l-11.3 11.33a4.27 4.27 0 0 1-6 0l-7.57-7.54a4.27 4.27 0 0 1 0-6L14 4.46c2.08-2.09 5.88-2.59 9.24-2.86 1.68-.14 3.26-.17 4.42-.17h1.89a1 1 0 0 1 1 1 54 54 0 0 1-.15 6.34zm-3.59-1A2.86 2.86 0 1 0 24 10.61a2.88 2.88 0 0 0 2.81-2.86z" data-original="url(#a)" class=""></path></g></svg>