<svg xmlns="http://www.w3.org/2000/svg" version="1.1" xmlns:xlink="http://www.w3.org/1999/xlink" xmlns:svgjs="http://svgjs.com/svgjs" width="512" height="512" x="0" y="0" viewBox="0 0 682.667 682.667" style="enable-background:new 0 0 512 512" xml:space="preserve" class=""><g><defs><clipPath id="a" clipPathUnits="userSpaceOnUse"><path d="M0 512h512V0H0Z" fill="#000000" data-original="#000000"></path></clipPath></defs><g clip-path="url(#a)" transform="matrix(1.33333 0 0 -1.33333 0 682.667)"><path d="M0 0v404.454c0 9.109 7.385 16.493 16.494 16.493h333.467c9.109 0 16.494-7.384 16.494-16.493V0c0-9.109-7.385-16.494-16.494-16.494H16.494C7.385-16.494 0-9.109 0 0" style="fill-opacity:1;fill-rule:nonzero;stroke:none" transform="translate(43.998 23.994)" fill="#0e80ac" data-original="#0e80ac"></path><path d="M0 0h-19.184v-420.947c0-9.11-7.384-16.494-16.494-16.494H0c9.109 0 16.494 7.384 16.494 16.494v404.454C16.494-7.384 9.109 0 0 0" style="fill-opacity:1;fill-rule:nonzero;stroke:none" transform="translate(393.959 444.941)" fill="#057195" data-original="#057195"></path><path d="M0 0v-386.128c0-6.009 4.871-10.879 10.88-10.879h273.285c6.008 0 10.879 4.87 10.879 10.879V0z" style="fill-opacity:1;fill-rule:nonzero;stroke:none" transform="translate(79.704 444.941)" fill="#f7f0f0" data-original="#f7f0f0" class=""></path><path d="M0 0c0 13.064-10.591 23.654-23.654 23.654h-18.037c-13.064 0-23.654-10.59-23.654-23.654 0-6.627-5.373-12-12-12h-14.433c-13.202 0-23.904-10.702-23.904-23.904v-12.558c0-6.267 5.08-11.346 11.346-11.346H38.99c6.267 0 11.347 5.079 11.347 11.346v12.558C50.337-22.702 39.635-12 26.433-12H12C5.372-12 0-6.627 0 0" style="fill-opacity:1;fill-rule:nonzero;stroke:none" transform="translate(259.898 480.846)" fill="#fd7e42" data-original="#fd7e42" class=""></path><path d="M0 0h-14.433c-6.628 0-12 5.373-12 12 0 13.063-10.59 23.654-23.654 23.654h-12.207V-.499c0-6.627 5.373-12 12-12h14.433c13.202 0 23.904-10.702 23.904-23.904v-11.406h24.515c6.266 0 11.346 5.081 11.346 11.347v12.558C23.904-10.702 13.202 0 0 0" style="fill-opacity:1;fill-rule:nonzero;stroke:none" transform="translate(286.331 468.846)" fill="#fa6931" data-original="#fa6931" class=""></path><path d="m0 0 16.441-14.614c2.826-2.512 7.209-1.996 9.375 1.101l24.596 35.178" style="stroke-width:15;stroke-linecap:round;stroke-linejoin:round;stroke-miterlimit:10;stroke-dasharray:none;stroke-opacity:1" transform="translate(127.276 345.432)" fill="none" stroke="#000000" stroke-width="15" stroke-linecap="round" stroke-linejoin="round" stroke-miterlimit="10" stroke-dasharray="none" stroke-opacity="" data-original="#000000" class=""></path><path d="m0 0 16.441-14.615c2.826-2.511 7.209-1.996 9.375 1.101l24.596 35.179" style="stroke-width:15;stroke-linecap:round;stroke-linejoin:round;stroke-miterlimit:10;stroke-dasharray:none;stroke-opacity:1" transform="translate(127.276 235.872)" fill="none" stroke="#000000" stroke-width="15" stroke-linecap="round" stroke-linejoin="round" stroke-miterlimit="10" stroke-dasharray="none" stroke-opacity="" data-original="#000000" class=""></path><path d="m0 0 16.441-14.614c2.826-2.512 7.209-1.996 9.375 1.101l24.596 35.178" style="stroke-width:15;stroke-linecap:round;stroke-linejoin:round;stroke-miterlimit:10;stroke-dasharray:none;stroke-opacity:1" transform="translate(127.276 127.783)" fill="none" stroke="#000000" stroke-width="15" stroke-linecap="round" stroke-linejoin="round" stroke-miterlimit="10" stroke-dasharray="none" stroke-opacity="" data-original="#000000" class=""></path><path d="M0 0h105.991" style="stroke-width:15;stroke-linecap:round;stroke-linejoin:round;stroke-miterlimit:10;stroke-dasharray:none;stroke-opacity:1" transform="translate(221.185 363.156)" fill="none" stroke="#000000" stroke-width="15" stroke-linecap="round" stroke-linejoin="round" stroke-miterlimit="10" stroke-dasharray="none" stroke-opacity="" data-original="#000000" class=""></path><path d="M0 0h105.991" style="stroke-width:15;stroke-linecap:round;stroke-linejoin:round;stroke-miterlimit:10;stroke-dasharray:none;stroke-opacity:1" transform="translate(221.185 329.825)" fill="none" stroke="#000000" stroke-width="15" stroke-linecap="round" stroke-linejoin="round" stroke-miterlimit="10" stroke-dasharray="none" stroke-opacity="" data-original="#000000" class=""></path><path d="M0 0h105.991" style="stroke-width:15;stroke-linecap:round;stroke-linejoin:round;stroke-miterlimit:10;stroke-dasharray:none;stroke-opacity:1" transform="translate(221.185 256)" fill="none" stroke="#000000" stroke-width="15" stroke-linecap="round" stroke-linejoin="round" stroke-miterlimit="10" stroke-dasharray="none" stroke-opacity="" data-original="#000000" class=""></path><path d="M0 0h52.995" style="stroke-width:15;stroke-linecap:round;stroke-linejoin:round;stroke-miterlimit:10;stroke-dasharray:none;stroke-opacity:1" transform="translate(221.185 222.669)" fill="none" stroke="#000000" stroke-width="15" stroke-linecap="round" stroke-linejoin="round" stroke-miterlimit="10" stroke-dasharray="none" stroke-opacity="" data-original="#000000" class=""></path><path d="M0 0v60.947c0 9.11-7.385 16.494-16.494 16.494h-83.724" style="stroke-width:15;stroke-linecap:round;stroke-linejoin:round;stroke-miterlimit:10;stroke-dasharray:none;stroke-opacity:1" transform="translate(410.453 367.5)" fill="none" stroke="#000000" stroke-width="15" stroke-linecap="round" stroke-linejoin="round" stroke-miterlimit="10" stroke-dasharray="none" stroke-opacity="" data-original="#000000" class=""></path><path d="M0 0h-83.725c-9.108 0-16.493-7.385-16.493-16.494v-404.453c0-9.11 7.385-16.494 16.493-16.494h333.468c9.109 0 16.494 7.384 16.494 16.494v191.089" style="stroke-width:15;stroke-linecap:round;stroke-linejoin:round;stroke-miterlimit:10;stroke-dasharray:none;stroke-opacity:1" transform="translate(144.216 444.941)" fill="none" stroke="#000000" stroke-width="15" stroke-linecap="round" stroke-linejoin="round" stroke-miterlimit="10" stroke-dasharray="none" stroke-opacity="" data-original="#000000" class=""></path><path d="M0 0v0c0 13.064-10.591 23.654-23.654 23.654h-18.037c-13.064 0-23.654-10.59-23.654-23.654 0-6.627-5.373-12-12-12h-14.433c-13.202 0-23.904-10.702-23.904-23.904v-12.558c0-6.267 5.08-11.346 11.346-11.346H38.99c6.267 0 11.347 5.079 11.347 11.346v12.558C50.337-22.702 39.635-12 26.433-12H12C5.372-12 0-6.627 0 0Z" style="stroke-width:15;stroke-linecap:round;stroke-linejoin:round;stroke-miterlimit:10;stroke-dasharray:none;stroke-opacity:1" transform="translate(259.898 480.846)" fill="none" stroke="#000000" stroke-width="15" stroke-linecap="round" stroke-linejoin="round" stroke-miterlimit="10" stroke-dasharray="none" stroke-opacity="" data-original="#000000" class=""></path><path d="M0 0v-386.128c0-6.009 4.871-10.879 10.88-10.879h124.206" style="stroke-width:15;stroke-linecap:round;stroke-linejoin:round;stroke-miterlimit:10;stroke-dasharray:none;stroke-opacity:1" transform="translate(79.704 444.941)" fill="none" stroke="#000000" stroke-width="15" stroke-linecap="round" stroke-linejoin="round" stroke-miterlimit="10" stroke-dasharray="none" stroke-opacity="" data-original="#000000" class=""></path><path d="M0 0v122.098" style="stroke-width:15;stroke-linecap:round;stroke-linejoin:round;stroke-miterlimit:10;stroke-dasharray:none;stroke-opacity:1" transform="translate(374.748 322.844)" fill="none" stroke="#000000" stroke-width="15" stroke-linecap="round" stroke-linejoin="round" stroke-miterlimit="10" stroke-dasharray="none" stroke-opacity="" data-original="#000000" class=""></path><path d="m0 0-31.135-.225H98.531c6.009 0 10.88 4.871 10.88 10.879v111.812" style="stroke-width:15;stroke-linecap:round;stroke-linejoin:round;stroke-miterlimit:10;stroke-dasharray:none;stroke-opacity:1" transform="translate(265.337 48.16)" fill="none" stroke="#000000" stroke-width="15" stroke-linecap="round" stroke-linejoin="round" stroke-miterlimit="10" stroke-dasharray="none" stroke-opacity="" data-original="#000000" class=""></path><path d="m0 0-29.124 23.343-10.032-5.424-170.156-212.302-27.048-54.314a10.474 10.474 0 0 1 15.974-12.804l47.121 38.227L-3.109-10.973z" style="fill-opacity:1;fill-rule:nonzero;stroke:none" transform="translate(438.602 296.45)" fill="#fa6931" data-original="#fa6931" class=""></path><path d="m0 0-27.199-54.616A10.533 10.533 0 0 1-11.136-67.49l47.383 38.438z" style="fill-opacity:1;fill-rule:nonzero;stroke:none" transform="translate(229.524 102.36)" fill="#557981" data-original="#557981"></path><path d="M0 0c-9.954 7.979-24.491 6.377-32.47-3.578l-27.433-34.229 36.047-28.891L3.578-32.469C11.556-22.515 9.954-7.978 0 0" style="fill-opacity:1;fill-rule:nonzero;stroke:none" transform="translate(459.349 352.176)" fill="#ffc3ab" data-original="#ffc3ab" class=""></path><path d="m0 0-170.156-212.302-27.048-54.314a10.475 10.475 0 0 1 15.974-12.804l47.122 38.227L36.047-28.892" style="stroke-width:15;stroke-linecap:round;stroke-linejoin:round;stroke-miterlimit:10;stroke-dasharray:none;stroke-opacity:1" transform="translate(399.445 314.37)" fill="none" stroke="#000000" stroke-width="15" stroke-linecap="round" stroke-linejoin="round" stroke-miterlimit="10" stroke-dasharray="none" stroke-opacity="" data-original="#000000" class=""></path><path d="m0 0-36.247 29.052" style="stroke-width:15;stroke-linecap:round;stroke-linejoin:round;stroke-miterlimit:10;stroke-dasharray:none;stroke-opacity:1" transform="translate(265.77 73.308)" fill="none" stroke="#000000" stroke-width="15" stroke-linecap="round" stroke-linejoin="round" stroke-miterlimit="10" stroke-dasharray="none" stroke-opacity="" data-original="#000000" class=""></path><path d="M0 0v0c-9.954 7.979-24.491 6.377-32.47-3.578l-27.433-34.229 36.047-28.891L3.578-32.469C11.556-22.515 9.954-7.978 0 0Z" style="stroke-width:15;stroke-linecap:round;stroke-linejoin:round;stroke-miterlimit:10;stroke-dasharray:none;stroke-opacity:1" transform="translate(459.349 352.176)" fill="none" stroke="#000000" stroke-width="15" stroke-linecap="round" stroke-linejoin="round" stroke-miterlimit="10" stroke-dasharray="none" stroke-opacity="" data-original="#000000" class=""></path></g></g></svg>